<svg xmlns="http://www.w3.org/2000/svg" viewBox="0 0 480 480">
  <defs>
    <radialGradient id="close-bg" cx="0.5" cy="0.45" r="0.65">
      <stop offset="0" stop-color="#f9fefb" />
      <stop offset="1" stop-color="#cfe8dc" />
    </radialGradient>
  </defs>
  <rect width="480" height="480" fill="url(#close-bg)" rx="40" />
  <g transform="translate(60 60)">
    <circle cx="180" cy="180" r="180" fill="#ffffff" opacity="0.9" />
    <g fill="#0e6248">
      <ellipse cx="120" cy="120" rx="18" ry="12" opacity="0.55" />
      <ellipse cx="200" cy="90" rx="16" ry="11" opacity="0.4" />
      <ellipse cx="250" cy="150" rx="20" ry="13" opacity="0.45" />
      <ellipse cx="130" cy="210" rx="22" ry="14" opacity="0.45" />
      <ellipse cx="220" cy="240" rx="18" ry="11" opacity="0.6" />
      <ellipse cx="170" cy="300" rx="16" ry="11" opacity="0.5" />
      <ellipse cx="260" cy="210" rx="14" ry="10" opacity="0.35" />
      <ellipse cx="100" cy="260" rx="20" ry="13" opacity="0.4" />
    </g>
    <g fill="#52b995" opacity="0.6">
      <ellipse cx="210" cy="170" rx="14" ry="10" />
      <ellipse cx="160" cy="230" rx="12" ry="9" />
      <ellipse cx="230" cy="280" rx="10" ry="8" />
      <ellipse cx="140" cy="160" rx="11" ry="8" />
    </g>
  </g>
  <text x="240" y="430" font-family="Lato, Arial" font-size="20" text-anchor="middle" fill="#0e6248">
    Hydrated whole chia texture
  </text>
</svg>
