<svg xmlns="http://www.w3.org/2000/svg" viewBox="0 0 640 480">
  <defs>
    <linearGradient id="bg" x1="0" x2="1" y1="0" y2="1">
      <stop offset="0" stop-color="#f3faf6" />
      <stop offset="1" stop-color="#d9efe5" />
    </linearGradient>
    <linearGradient id="bag" x1="0" x2="0" y1="0" y2="1">
      <stop offset="0" stop-color="#ffffff" />
      <stop offset="1" stop-color="#f0f0f0" />
    </linearGradient>
    <linearGradient id="label" x1="0" x2="1" y1="0" y2="1">
      <stop offset="0" stop-color="#0e6248" />
      <stop offset="1" stop-color="#2f8c6d" />
    </linearGradient>
  </defs>
  <rect width="640" height="480" fill="url(#bg)" rx="32" />
  <g transform="translate(170 80)">
    <rect x="50" y="20" width="260" height="320" rx="28" fill="url(#bag)" stroke="#d7dfd9" stroke-width="4" />
    <rect x="80" y="60" width="200" height="120" rx="20" fill="url(#label)" />
    <text x="180" y="120" font-family="Lato, Arial" font-size="36" text-anchor="middle" fill="#ffffff">CHIA</text>
    <text x="180" y="155" font-family="Lato, Arial" font-size="18" text-anchor="middle" fill="#d0f1e5">whole seeds</text>
    <g fill="#0e6248" opacity="0.2">
      <circle cx="120" cy="230" r="14" />
      <circle cx="180" cy="260" r="10" />
      <circle cx="240" cy="220" r="12" />
      <circle cx="210" cy="300" r="8" />
      <circle cx="130" cy="280" r="11" />
    </g>
    <g fill="#0e6248" opacity="0.35">
      <ellipse cx="150" cy="245" rx="12" ry="8" />
      <ellipse cx="210" cy="270" rx="11" ry="8" />
      <ellipse cx="190" cy="310" rx="9" ry="6" />
    </g>
  </g>
  <text x="320" y="440" text-anchor="middle" font-family="Lato, Arial" font-size="20" fill="#0e6248">
    Sustainably packed 500 g pouch
  </text>
</svg>
