<svg xmlns="http://www.w3.org/2000/svg" width="16" height="16" viewBox="0 0 16 16">
    <g fill="none" fill-rule="evenodd">
        <g fill="#FFF">
            <g>
                <g>
                    <g>
                        <g>
                            <path d="M7.93 0c4.376 0 7.93 3.553 7.93 7.93 0 4.376-3.554 7.93-7.93 7.93C3.553 15.86 0 12.305 0 7.93 0 3.553 3.553 0 7.93 0zm0 1.094c-3.773 0-6.836 3.063-6.836 6.836s3.063 6.836 6.836 6.836 6.836-3.063 6.836-6.836-3.063-6.836-6.836-6.836zm-.063 3.81c1.095-1.096 2.875-1.096 3.97 0 1.092 1.091 1.096 2.861.013 3.958l-3.983 3.983-3.971-3.97-.131-.14c-.963-1.103-.92-2.78.13-3.831 1.097-1.096 2.876-1.096 3.972 0h-.002z" transform="translate(-1159.000000, -46.000000) translate(250.000000, 28.000000) translate(844.000000, 9.000000) translate(65.000000, 9.000000)"/>
                        </g>
                    </g>
                </g>
            </g>
        </g>
    </g>
</svg>
