<svg xmlns="http://www.w3.org/2000/svg" width="109" height="52" viewBox="0 0 109 52">
    <g fill="none" fill-rule="evenodd">
        <g>
            <g>
                <g>
                    <g>
                        <path fill="#FFF" fill-rule="nonzero" d="M8.056 11.608v-1.88H3.08V6.68h3.872V4.864H3.08V1.88h4.976V0H.664v11.608h7.392zm2.362 0c.203 0 .37-.055.504-.164.133-.11.227-.23.28-.364l.784-2.216h4.624l.784 2.216c.064.155.161.281.292.38.13.099.3.148.508.148h1.864L15.53 0h-2.456L8.538 11.608h1.88zM16.026 7.2H12.57l1.256-3.536c.075-.187.152-.407.232-.66.08-.253.157-.527.232-.82.08.288.161.557.244.808.083.25.161.47.236.656L16.026 7.2zm7.554 4.408V7.184h.816c.213 0 .375.032.484.096.11.064.21.165.3.304l2.208 3.56c.181.31.475.464.88.464h2.168l-2.704-4.176c-.107-.165-.228-.308-.364-.428-.136-.12-.281-.223-.436-.308.395-.133.744-.31 1.048-.528.304-.219.56-.47.768-.752.208-.283.367-.596.476-.94.11-.344.164-.708.164-1.092 0-.496-.085-.95-.256-1.364-.17-.413-.44-.77-.808-1.068-.368-.299-.84-.532-1.416-.7C26.332.084 25.638 0 24.828 0H21.18v11.608h2.4zm1.232-6.112H23.58V1.824h1.248c.747 0 1.303.152 1.668.456.365.304.548.73.548 1.28 0 .277-.043.533-.128.768s-.219.439-.4.612c-.181.173-.413.31-.696.408-.283.099-.619.148-1.008.148zm11.362 6.112V1.936h3.392V0h-9.192v1.936h3.392v9.672h2.408zm7.306 0v-5h5.112v5h2.416V0h-2.416v4.928H43.48V0h-2.416v11.608h2.416zm16.276 0v-5h5.112v5h2.416V0h-2.416v4.928h-5.112V0H57.34v11.608h2.416zm17.402 0v-1.88h-4.976V6.68h3.872V4.864h-3.872V1.88h4.976V0h-7.392v11.608h7.392zm2.362 0c.203 0 .37-.055.504-.164.133-.11.227-.23.28-.364l.784-2.216h4.624l.784 2.216c.064.155.161.281.292.38.13.099.3.148.508.148h1.864L84.632 0h-2.456L77.64 11.608h1.88zM85.128 7.2h-3.456l1.256-3.536c.075-.187.152-.407.232-.66.08-.253.157-.527.232-.82.08.288.161.557.244.808.083.25.161.47.236.656L85.128 7.2zm7.554 4.408V7.184h.816c.213 0 .375.032.484.096.11.064.21.165.3.304l2.208 3.56c.181.31.475.464.88.464h2.168l-2.704-4.176c-.107-.165-.228-.308-.364-.428-.136-.12-.281-.223-.436-.308.395-.133.744-.31 1.048-.528.304-.219.56-.47.768-.752.208-.283.367-.596.476-.94.11-.344.164-.708.164-1.092 0-.496-.085-.95-.256-1.364-.17-.413-.44-.77-.808-1.068-.368-.299-.84-.532-1.416-.7C95.434.084 94.74 0 93.93 0h-3.648v11.608h2.4zm1.232-6.112h-1.232V1.824h1.248c.747 0 1.303.152 1.668.456.365.304.548.73.548 1.28 0 .277-.043.533-.128.768s-.219.439-.4.612c-.181.173-.413.31-.696.408-.283.099-.619.148-1.008.148zm11.362 6.112V1.936h3.392V0h-9.192v1.936h3.392v9.672h2.408zm-102.196 19v-4.632h4.176v-1.888H3.08V20.88h4.976V19H.664v11.608H3.08zm11.858.128c.89 0 1.701-.15 2.432-.452.73-.301 1.356-.716 1.876-1.244.52-.528.923-1.155 1.208-1.88.285-.725.428-1.512.428-2.36 0-.843-.143-1.625-.428-2.348-.285-.723-.688-1.35-1.208-1.88-.52-.53-1.145-.947-1.876-1.248-.73-.301-1.541-.452-2.432-.452-.89 0-1.701.15-2.432.452-.73.301-1.357.716-1.88 1.244-.523.528-.927 1.153-1.212 1.876-.285.723-.428 1.508-.428 2.356 0 .848.143 1.635.428 2.36.285.725.69 1.352 1.212 1.88.523.528 1.15.943 1.88 1.244.73.301 1.541.452 2.432.452zm0-2.024c-.544 0-1.032-.09-1.464-.268-.432-.179-.799-.436-1.1-.772-.301-.336-.532-.745-.692-1.228-.16-.483-.24-1.03-.24-1.644 0-.608.08-1.153.24-1.636.16-.483.39-.893.692-1.232.301-.339.668-.597 1.1-.776.432-.179.92-.268 1.464-.268.544 0 1.03.09 1.46.268.43.179.795.437 1.096.776.301.339.532.75.692 1.232.16.483.24 1.028.24 1.636 0 .613-.08 1.161-.24 1.644-.16.483-.39.892-.692 1.228-.301.336-.667.593-1.096.772-.43.179-.916.268-1.46.268zm12.506 2.024c.757 0 1.437-.12 2.04-.36s1.115-.573 1.536-1c.421-.427.745-.935.972-1.524.227-.59.34-1.236.34-1.94V19h-2.4v6.912c0 .427-.056.81-.168 1.152-.112.341-.275.632-.488.872-.213.24-.475.425-.784.556-.31.13-.659.196-1.048.196-.395 0-.747-.065-1.056-.196-.31-.13-.57-.316-.784-.556-.213-.24-.376-.53-.488-.872-.112-.341-.168-.725-.168-1.152V19h-2.4v6.912c0 .704.113 1.35.34 1.94.227.59.55 1.097.972 1.524.421.427.935.76 1.54 1s1.287.36 2.044.36zm9.346-.128v-6.712c0-.155-.004-.321-.012-.5s-.02-.361-.036-.548l5.784 7.352c.123.15.248.255.376.316s.285.092.472.092h1.24V19h-2.12v6.64c0 .17.005.352.016.544.01.192.027.39.048.592l-5.824-7.4c-.064-.08-.123-.144-.176-.192-.053-.048-.11-.087-.168-.116-.059-.03-.124-.048-.196-.056-.072-.008-.159-.012-.26-.012H34.67v11.608h2.12zm14.77 0c.89 0 1.701-.144 2.432-.432.73-.288 1.356-.688 1.876-1.2.52-.512.923-1.124 1.208-1.836.285-.712.428-1.492.428-2.34 0-.843-.143-1.619-.428-2.328-.285-.71-.688-1.321-1.208-1.836-.52-.515-1.145-.916-1.876-1.204-.73-.288-1.541-.432-2.432-.432h-4.464v11.608h4.464zm0-1.88h-2.048V20.88h2.048c.544 0 1.03.09 1.46.272.43.181.793.44 1.092.776.299.336.528.747.688 1.232.16.485.24 1.032.24 1.64 0 .613-.08 1.163-.24 1.648-.16.485-.39.897-.688 1.236-.299.339-.663.597-1.092.776-.43.179-.916.268-1.46.268zm7.906 1.88c.203 0 .37-.055.504-.164.133-.11.227-.23.28-.364l.784-2.216h4.624l.784 2.216c.064.155.161.281.292.38.13.099.3.148.508.148h1.864L64.578 19h-2.456l-4.536 11.608h1.88zm5.608-4.408h-3.456l1.256-3.536c.075-.187.152-.407.232-.66.08-.253.157-.527.232-.82.08.288.161.557.244.808.083.25.161.47.236.656l1.256 3.552zm8.842 4.408v-9.672h3.392V19h-9.192v1.936h3.392v9.672h2.408zm7.306 0V19h-2.416v11.608h2.416zm7.754.128c.89 0 1.701-.15 2.432-.452.73-.301 1.356-.716 1.876-1.244.52-.528.923-1.155 1.208-1.88.285-.725.428-1.512.428-2.36 0-.843-.143-1.625-.428-2.348-.285-.723-.688-1.35-1.208-1.88-.52-.53-1.145-.947-1.876-1.248-.73-.301-1.541-.452-2.432-.452-.89 0-1.701.15-2.432.452-.73.301-1.357.716-1.88 1.244-.523.528-.927 1.153-1.212 1.876-.285.723-.428 1.508-.428 2.356 0 .848.143 1.635.428 2.36.285.725.69 1.352 1.212 1.88.523.528 1.15.943 1.88 1.244.73.301 1.541.452 2.432.452zm0-2.024c-.544 0-1.032-.09-1.464-.268-.432-.179-.799-.436-1.1-.772-.301-.336-.532-.745-.692-1.228-.16-.483-.24-1.03-.24-1.644 0-.608.08-1.153.24-1.636.16-.483.39-.893.692-1.232.301-.339.668-.597 1.1-.776.432-.179.92-.268 1.464-.268.544 0 1.03.09 1.46.268.43.179.795.437 1.096.776.301.339.532.75.692 1.232.16.483.24 1.028.24 1.636 0 .613-.08 1.161-.24 1.644-.16.483-.39.892-.692 1.228-.301.336-.667.593-1.096.772-.43.179-.916.268-1.46.268zm9.874 1.896v-6.712c0-.155-.004-.321-.012-.5s-.02-.361-.036-.548l5.784 7.352c.123.15.248.255.376.316s.285.092.472.092h1.24V19h-2.12v6.64c0 .17.005.352.016.544.01.192.027.39.048.592l-5.824-7.4c-.064-.08-.123-.144-.176-.192-.053-.048-.11-.087-.168-.116-.059-.03-.124-.048-.196-.056-.072-.008-.159-.012-.26-.012H96.73v11.608h2.12zM5.624 49.736c.96 0 1.788-.155 2.484-.464.696-.31 1.279-.763 1.748-1.36l-.952-1.016c-.09-.096-.203-.144-.336-.144-.075 0-.144.016-.208.048s-.125.072-.184.12c-.17.155-.34.283-.508.384-.168.101-.347.184-.536.248-.19.064-.395.11-.616.136-.221.027-.468.04-.74.04-.459 0-.89-.087-1.292-.26-.403-.173-.755-.428-1.056-.764-.301-.336-.539-.748-.712-1.236-.173-.488-.26-1.044-.26-1.668 0-.619.08-1.17.24-1.656.16-.485.385-.895.676-1.228.29-.333.639-.588 1.044-.764.405-.176.85-.264 1.336-.264.437 0 .799.045 1.084.136.285.09.523.192.712.304.19.112.35.213.48.304.13.09.26.136.388.136s.23-.027.304-.08c.075-.053.136-.115.184-.184l.808-1.104c-.224-.224-.476-.43-.756-.62s-.585-.35-.916-.484c-.33-.133-.687-.237-1.068-.312-.381-.075-.785-.112-1.212-.112-.57 0-1.108.065-1.612.196-.504.13-.97.32-1.396.568-.427.248-.81.548-1.148.9-.339.352-.628.747-.868 1.184-.24.437-.423.916-.548 1.436C.063 42.676 0 43.224 0 43.8c0 .859.13 1.65.392 2.376.261.725.635 1.352 1.12 1.88.485.528 1.075.94 1.768 1.236.693.296 1.475.444 2.344.444zm13.026-.128v-1.88h-4.976V44.68h3.872v-1.816h-3.872V39.88h4.976V38h-7.392v11.608h7.392zm6.338 0c.688 0 1.297-.087 1.828-.26.53-.173.977-.415 1.34-.724.363-.31.639-.675.828-1.096.19-.421.284-.877.284-1.368 0-1.339-.773-2.19-2.32-2.552.352-.123.656-.272.912-.448s.465-.372.628-.588c.163-.216.283-.447.36-.692.077-.245.116-.501.116-.768 0-.475-.08-.904-.24-1.288-.16-.384-.415-.71-.764-.98-.35-.27-.8-.477-1.352-.624-.552-.147-1.217-.22-1.996-.22h-4.12v11.608h4.496zm-.52-6.648h-1.576v-3.136h1.72c.336 0 .627.028.872.084.245.056.448.145.608.268.16.123.279.285.356.488.077.203.116.448.116.736 0 .283-.047.524-.14.724-.093.2-.228.361-.404.484-.176.123-.395.212-.656.268-.261.056-.56.084-.896.084zm.48 4.808h-2.056v-3.176h2.04c.363 0 .668.035.916.104.248.07.45.17.604.3.155.13.267.29.336.476.07.187.104.397.104.632 0 .213-.03.42-.088.62-.059.2-.163.377-.312.532-.15.155-.348.279-.596.372-.248.093-.564.14-.948.14zm10.962 1.968c.757 0 1.437-.12 2.04-.36s1.115-.573 1.536-1c.421-.427.745-.935.972-1.524.227-.59.34-1.236.34-1.94V38h-2.4v6.912c0 .427-.056.81-.168 1.152-.112.341-.275.632-.488.872-.213.24-.475.425-.784.556-.31.13-.659.196-1.048.196-.395 0-.747-.065-1.056-.196-.31-.13-.57-.316-.784-.556-.213-.24-.376-.53-.488-.872-.112-.341-.168-.725-.168-1.152V38h-2.4v6.912c0 .704.113 1.35.34 1.94.227.59.55 1.097.972 1.524.421.427.935.76 1.54 1s1.287.36 2.044.36z" transform="translate(-666.000000, -28.000000) translate(250.000000, 28.000000) translate(416.000000, 0.000000)"/>
                        <g>
                            <path fill="#107052" d="M6.938 0c3.83 0 6.939 3.109 6.939 6.938 0 3.83-3.11 6.939-6.939 6.939S0 10.767 0 6.938 3.109 0 6.938 0z" transform="translate(-666.000000, -28.000000) translate(250.000000, 28.000000) translate(416.000000, 0.000000) translate(44.000000, 37.500000)"/>
                            <path fill="#FFF" d="M6.938.957c3.302 0 5.982 2.68 5.982 5.981 0 3.302-2.68 5.982-5.982 5.982-3.3 0-5.98-2.68-5.98-5.982 0-3.3 2.68-5.981 5.98-5.981z" transform="translate(-666.000000, -28.000000) translate(250.000000, 28.000000) translate(416.000000, 0.000000) translate(44.000000, 37.500000)"/>
                            <path fill="#272727" d="M6.883 4.291c-.959-.959-2.515-.959-3.474 0-.959.959-.959 2.516 0 3.474.959.96 2.515.96 3.474 0 .959-.958.959-2.515 0-3.474z" transform="translate(-666.000000, -28.000000) translate(250.000000, 28.000000) translate(416.000000, 0.000000) translate(44.000000, 37.500000)"/>
                            <path fill="#107253" d="M10.369 7.754c.947-.96.944-2.508-.011-3.463-.96-.959-2.516-.959-3.475 0L3.41 7.765l3.474 3.475 3.475-3.475.01-.01z" transform="translate(-666.000000, -28.000000) translate(250.000000, 28.000000) translate(416.000000, 0.000000) translate(44.000000, 37.500000)"/>
                        </g>
                    </g>
                </g>
            </g>
        </g>
    </g>
</svg>
