<svg xmlns="http://www.w3.org/2000/svg" width="51" height="11" viewBox="0 0 51 11">
    <g fill="none" fill-rule="evenodd">
        <g fill="#FFF" fill-rule="nonzero">
            <g>
                <g>
                    <path d="M3.321 9.429c3.978 0 6.154-3.295 6.154-6.154 0-.094 0-.188-.006-.281.422-.308.79-.69 1.085-1.119-.389.168-.81.288-1.246.335.449-.268.79-.69.95-1.192-.414.248-.883.429-1.372.523-.395-.422-.957-.683-1.58-.683-1.199 0-2.163.97-2.163 2.163 0 .167.02.334.053.495-1.794-.094-3.395-.95-4.46-2.263-.187.321-.294.69-.294 1.091 0 .75.382 1.413.964 1.802-.355-.014-.69-.114-.977-.275v.027c0 1.051.743 1.922 1.734 2.123-.18.046-.375.073-.57.073-.14 0-.274-.013-.408-.033.275.857 1.072 1.48 2.023 1.5-.744.582-1.675.924-2.686.924-.18 0-.348-.007-.522-.027.958.616 2.096.971 3.321.971zM25.196 10.286V6.302h-1.339V4.748h1.34V3.603c0-1.326.816-2.049 2.002-2.049.562 0 1.051.04 1.192.06V3l-.817.007c-.65 0-.77.301-.77.75v.991h1.533l-.2 1.554h-1.333v3.984h1.259c1.064 0 1.928-.864 1.928-1.928V1.929C29.991.864 29.127 0 28.063 0h-6.43c-1.064 0-1.928.864-1.928 1.929v6.429c0 1.064.864 1.928 1.929 1.928h3.562zM46.971 10.253c.824-.04 1.554-.228 2.156-.83.603-.603.79-1.333.83-2.157.027-.473.033-.943.034-1.415v-.708c0-.71.007-1.413-.033-2.122-.04-.824-.228-1.554-.83-2.157-.603-.602-1.333-.79-2.157-.83C46.498.007 46.028 0 45.556 0h-.708c-.71 0-1.413-.006-2.123.034-.823.04-1.553.228-2.156.83-.602.603-.79 1.333-.83 2.157-.027.473-.033.943-.034 1.414v.708c0 .71-.006 1.413.034 2.123.04.824.228 1.554.83 2.156.603.603 1.333.79 2.156.83.474.027.944.033 1.415.034h.708c.71 0 1.413.007 2.123-.033zm-1.935-.89l-.188-.001c-.75 0-2.357.06-3.033-.208-.235-.093-.409-.207-.59-.388-.18-.18-.294-.355-.388-.59-.268-.676-.208-2.283-.208-3.033s-.06-2.357.208-3.033c.094-.235.208-.409.388-.59.181-.18.355-.294.59-.388.676-.268 2.283-.207 3.033-.207s2.357-.06 3.034.207c.234.094.408.208.589.389.18.18.295.354.388.589.268.676.208 2.283.208 3.033s.06 2.357-.208 3.034c-.093.234-.207.408-.388.59-.18.18-.355.294-.59.387-.624.248-2.041.215-2.845.209zm2.558-6.35c.341 0 .616-.274.616-.615 0-.342-.275-.616-.616-.616-.342 0-.616.274-.616.616 0 .341.274.616.616.616zm-2.746 4.769c1.46 0 2.639-1.179 2.639-2.639 0-1.46-1.179-2.638-2.639-2.638-1.46 0-2.638 1.178-2.638 2.638s1.178 2.639 2.638 2.639zm0-.924c-.944 0-1.714-.77-1.714-1.715 0-.944.77-1.714 1.714-1.714s1.715.77 1.715 1.714-.77 1.715-1.715 1.715z" transform="translate(-250.000000, -3743.000000) translate(0.000000, 3606.000000) translate(250.294643, 137.570999)"/>
                </g>
            </g>
        </g>
    </g>
</svg>
